SplineFontDB: 3.2
FontName: NotoSansTagalog-Regular
FullName: Noto Sans Tagalog Regular
FamilyName: Noto Sans Tagalog
Weight: Book
Copyright: Copyright 2017 Google Inc. All Rights Reserved.
Version: 2.000
ItalicAngle: 0
UnderlinePosition: -125
UnderlineWidth: 50
Ascent: 800
Descent: 200
InvalidEm: 0
sfntRevision: 0x00020000
LayerCount: 2
Layer: 0 1 "+BBcEMAQ0BD0EOAQ5 +BD8EOwQwBD0A" 1
Layer: 1 1 "+BB8ENQRABDUENAQ9BDgEOQAA +BD8EOwQwBD0A" 0
XUID: [1021 59 1751208496 26748]
StyleMap: 0x0040
FSType: 0
OS2Version: 4
OS2_WeightWidthSlopeOnly: 1
OS2_UseTypoMetrics: 0
CreationTime: 1493842294
ModificationTime: 1635226263
PfmFamily: 17
TTFWeight: 400
TTFWidth: 5
LineGap: 0
VLineGap: 0
Panose: 2 11 5 2 4 5 4 2 2 4
OS2TypoAscent: 1069
OS2TypoAOffset: 0
OS2TypoDescent: -293
OS2TypoDOffset: 0
OS2TypoLinegap: 0
OS2WinAscent: 1069
OS2WinAOffset: 0
OS2WinDescent: 293
OS2WinDOffset: 0
HheadAscent: 1069
HheadAOffset: 0
HheadDescent: -293
HheadDOffset: 0
OS2SubXSize: 650
OS2SubYSize: 600
OS2SubXOff: 0
OS2SubYOff: 75
OS2SupXSize: 650
OS2SupYSize: 600
OS2SupXOff: 0
OS2SupYOff: 350
OS2StrikeYSize: 50
OS2StrikeYPos: 322
OS2CapHeight: 714
OS2XHeight: 536
OS2Vendor: 'GOOG'
OS2CodePages: 00000001.00000000
OS2UnicodeRanges: 80000003.00002000.00100000.00000000
Lookup: 260 0 0 "'mark' Mark Positioning lookup 0" { "'mark' Mark Positioning lookup 0 subtable"  } ['mark' ('DFLT' <'dflt' > ) ]
Lookup: 260 0 0 "'mark' Mark Positioning lookup 1" { "'mark' Mark Positioning lookup 1 subtable"  } ['mark' ('DFLT' <'dflt' > ) ]
MarkAttachClasses: 1
DEI: 91125
TtTable: prep
PUSHW_1
 511
SCANCTRL
PUSHB_1
 1
SCANTYPE
SVTCA[y-axis]
MPPEM
PUSHB_1
 8
LT
IF
PUSHB_2
 1
 1
INSTCTRL
EIF
PUSHB_2
 70
 6
CALL
IF
POP
PUSHB_1
 16
EIF
MPPEM
PUSHB_1
 20
GT
IF
POP
PUSHB_1
 128
EIF
SCVTCI
PUSHB_1
 6
CALL
NOT
IF
EIF
PUSHB_1
 20
CALL
EndTTInstrs
TtTable: fpgm
PUSHB_1
 0
FDEF
PUSHB_1
 0
SZP0
MPPEM
PUSHB_1
 42
LT
IF
PUSHB_1
 74
SROUND
EIF
PUSHB_1
 0
SWAP
MIAP[rnd]
RTG
PUSHB_1
 6
CALL
IF
RTDG
EIF
MPPEM
PUSHB_1
 42
LT
IF
RDTG
EIF

StartChar: .notdef
Encoding: 65536 -1 0
Width: 600
Flags: W
HStem: 0 51<145 454> 663 51<145 454>
VStem: 94 51<51 663> 454 51<51 663>
LayerCount: 2
Fore
SplineSet
94 0 m 1,0,-1
 94 714 l 1,1,-1
 505 714 l 1,2,-1
 505 0 l 1,3,-1
 94 0 l 1,0,-1
145 51 m 1,4,-1
 454 51 l 1,5,-1
 454 663 l 1,6,-1
 145 663 l 1,7,-1
 145 51 l 1,4,-1
EndSplineSet
EndChar

StartChar: uni1700
Encoding: 5888 5888 5
Width: 1014
GlyphClass: 2
Flags: W
HStem: 0 68<285.209 386.836> 375 68<84 222> 518 68<84 230 313 453> 566 68<801.638 923.5>
VStem: 190 77<84.4268 321.277> 236 77<443.594 518>
LayerCount: 2
Fore
SplineSet
318 0 m 0,0,1
 266 0 266 0 228 43 c 128,-1,2
 190 86 190 86 190 168 c 0,3,4
 190 223 190 223 201 276 c 128,-1,5
 212 329 212 329 222 375 c 1,6,-1
 84 375 l 1,7,-1
 84 443 l 1,8,-1
 233 443 l 1,9,10
 235 462 235 462 236 481 c 128,-1,11
 237 500 237 500 237 518 c 1,12,-1
 84 518 l 1,13,-1
 84 586 l 1,14,-1
 230 586 l 1,15,16
 218 631 218 631 187.5 663 c 128,-1,17
 157 695 157 695 90 712 c 1,18,-1
 106 779 l 1,19,20
 157 762 157 762 197 740 c 128,-1,21
 237 718 237 718 265 682 c 128,-1,22
 293 646 293 646 306 586 c 1,23,-1
 453 586 l 1,24,-1
 453 518 l 1,25,-1
 313 518 l 1,26,-1
 313 504 l 2,27,28
 313 462 313 462 306 416.5 c 128,-1,29
 299 371 299 371 290 327 c 128,-1,30
 281 283 281 283 274 244 c 128,-1,31
 267 205 267 205 267 176 c 0,32,33
 267 68 267 68 324 68 c 0,34,35
 358 68 358 68 392 93.5 c 128,-1,36
 426 119 426 119 459.5 162 c 128,-1,37
 493 205 493 205 526.5 258.5 c 128,-1,38
 560 312 560 312 594 368 c 2,39,-1
 640 444 l 2,40,41
 684 516 684 516 718 557.5 c 128,-1,42
 752 599 752 599 786.5 616.5 c 128,-1,43
 821 634 821 634 864 634 c 0,44,45
 916 634 916 634 953.5 607 c 128,-1,46
 991 580 991 580 1010 533 c 1,47,-1
 947 506 l 1,48,49
 934 540 934 540 912 553 c 128,-1,50
 890 566 890 566 862 566 c 0,51,52
 828 566 828 566 798.5 542 c 128,-1,53
 769 518 769 518 734 461 c 2,54,-1
 663 343 l 2,55,56
 630 289 630 289 594 229.5 c 128,-1,57
 558 170 558 170 516 117.5 c 128,-1,58
 474 65 474 65 425 32.5 c 128,-1,59
 376 0 376 0 318 0 c 0,0,1
EndSplineSet
EndChar

StartChar: uni1701
Encoding: 5889 5889 6
Width: 1011
GlyphClass: 2
Flags: W
HStem: 78 68<69.917 259.784 729.781 886.67> 425 68<168.03 432.695> 511 68<589.303 839.278>
LayerCount: 2
Fore
SplineSet
283 425 m 0,0,1
 210 425 210 425 151.5 448.5 c 128,-1,2
 93 472 93 472 32 517 c 1,3,-1
 70 573 l 1,4,5
 110 545 110 545 143 527 c 128,-1,6
 176 509 176 509 209.5 501 c 128,-1,7
 243 493 243 493 285 493 c 0,8,9
 347 493 347 493 406.5 508 c 128,-1,10
 466 523 466 523 510 537 c 0,11,12
 555 551 555 551 610 565 c 128,-1,13
 665 579 665 579 725 579 c 0,14,15
 799 579 799 579 858 555.5 c 128,-1,16
 917 532 917 532 978 487 c 1,17,-1
 936 433 l 1,18,19
 902 459 902 459 869 476 c 128,-1,20
 836 493 836 493 799 502 c 128,-1,21
 762 511 762 511 712 511 c 0,22,23
 666 511 666 511 618 497.5 c 128,-1,24
 570 484 570 484 531 472 c 0,25,26
 482 456 482 456 415.5 440.5 c 128,-1,27
 349 425 349 425 283 425 c 0,0,1
180 78 m 0,28,29
 91 78 91 78 35 114 c 1,30,-1
 71 172 l 1,31,32
 111 146 111 146 180 146 c 0,33,34
 248 146 248 146 302 200 c 128,-1,35
 356 254 356 254 382 362 c 1,36,-1
 428 362 l 1,37,38
 439 314 439 314 454.5 280.5 c 128,-1,39
 470 247 470 247 488 224 c 1,40,41
 505 236 505 236 523.5 261 c 128,-1,42
 542 286 542 286 557.5 314 c 128,-1,43
 573 342 573 342 581 362 c 1,44,-1
 627 362 l 1,45,46
 638 303 638 303 660.5 254 c 128,-1,47
 683 205 683 205 719 175.5 c 128,-1,48
 755 146 755 146 804 146 c 0,49,50
 837 146 837 146 856.5 154 c 128,-1,51
 876 162 876 162 901 175 c 1,52,-1
 933 115 l 1,53,54
 902 99 902 99 874.5 88.5 c 128,-1,55
 847 78 847 78 805 78 c 0,56,57
 748 78 748 78 707.5 101 c 128,-1,58
 667 124 667 124 639 161.5 c 128,-1,59
 611 199 611 199 591 240 c 1,60,61
 572 216 572 216 543.5 183.5 c 128,-1,62
 515 151 515 151 475 126 c 1,63,64
 457 147 457 147 437 176 c 128,-1,65
 417 205 417 205 406 229 c 1,66,67
 385 191 385 191 353 156 c 128,-1,68
 321 121 321 121 278 99.5 c 128,-1,69
 235 78 235 78 180 78 c 0,28,29
EndSplineSet
EndChar

StartChar: uni1702
Encoding: 5890 5890 7
Width: 535
GlyphClass: 2
Flags: W
HStem: 0 68<94.6917 340.964> 311 68<198 338.873> 566 68<159.698 361.68>
VStem: 391 77<426.353 537.246> 411 76<133.403 268.472>
LayerCount: 2
Fore
SplineSet
243 0 m 0,0,1
 179 0 179 0 133.5 9 c 128,-1,2
 88 18 88 18 48 33 c 1,3,-1
 73 98 l 1,4,5
 110 82 110 82 157.5 75 c 128,-1,6
 205 68 205 68 242 68 c 0,7,8
 301 68 301 68 338 88 c 128,-1,9
 375 108 375 108 393 139 c 128,-1,10
 411 170 411 170 411 202 c 0,11,12
 411 254 411 254 375.5 282.5 c 128,-1,13
 340 311 340 311 267 311 c 2,14,-1
 198 311 l 1,15,-1
 198 379 l 1,16,-1
 244 379 l 2,17,18
 297 379 297 379 329.5 395.5 c 128,-1,19
 362 412 362 412 376.5 436.5 c 128,-1,20
 391 461 391 461 391 485 c 0,21,22
 391 518 391 518 365 542 c 128,-1,23
 339 566 339 566 278 566 c 0,24,25
 238 566 238 566 200 556.5 c 128,-1,26
 162 547 162 547 136 534 c 1,27,-1
 108 597 l 1,28,29
 153 618 153 618 192 626 c 128,-1,30
 231 634 231 634 282 634 c 0,31,32
 371 634 371 634 419.5 595 c 128,-1,33
 468 556 468 556 468 489 c 0,34,35
 468 444 468 444 446.5 410 c 128,-1,36
 425 376 425 376 380 356 c 1,37,38
 426 343 426 343 456.5 302.5 c 128,-1,39
 487 262 487 262 487 203 c 0,40,41
 487 139 487 139 455.5 93.5 c 128,-1,42
 424 48 424 48 369 24 c 128,-1,43
 314 0 314 0 243 0 c 0,0,1
EndSplineSet
EndChar

StartChar: uni1703
Encoding: 5891 5891 8
Width: 984
GlyphClass: 2
Flags: W
HStem: 21 68<161.588 353.872> 181 68<644.389 856.443> 377 68<161.588 352.427> 537 68<644.389 856.443>
VStem: 459 77<187 437>
AnchorPoint: "+BBEENQQ3BEsEPARPBD0EPQQ+BDUA--1" 539 0 basechar 0
AnchorPoint: "+BBEENQQ3BEsEPARPBD0EPQQ+BDUA--0" 488 693 basechar 0
LayerCount: 2
Fore
SplineSet
253 21 m 0,0,1
 188 21 188 21 142.5 44 c 128,-1,2
 97 67 97 67 51 106 c 1,3,-1
 95 159 l 1,4,5
 129 127 129 127 166 108 c 128,-1,6
 203 89 203 89 255 89 c 0,7,8
 280 89 280 89 305 95 c 128,-1,9
 330 101 330 101 347 108 c 2,10,-1
 459 155 l 1,11,-1
 459 437 l 1,12,-1
 374 402 l 2,13,14
 351 392 351 392 318.5 384.5 c 128,-1,15
 286 377 286 377 253 377 c 0,16,17
 188 377 188 377 142.5 400 c 128,-1,18
 97 423 97 423 51 462 c 1,19,-1
 95 515 l 1,20,21
 129 483 129 483 166 464 c 128,-1,22
 203 445 203 445 255 445 c 0,23,24
 280 445 280 445 305 451 c 128,-1,25
 330 457 330 457 347 464 c 2,26,-1
 610 574 l 2,27,28
 633 584 633 584 671.5 594.5 c 128,-1,29
 710 605 710 605 743 605 c 0,30,31
 799 605 799 605 843 592.5 c 128,-1,32
 887 580 887 580 933 555 c 1,33,-1
 902 494 l 1,34,35
 862 515 862 515 826.5 526 c 128,-1,36
 791 537 791 537 747 537 c 0,37,38
 722 537 722 537 688 528.5 c 128,-1,39
 654 520 654 520 637 512 c 2,40,-1
 536 469 l 1,41,-1
 536 187 l 1,42,-1
 610 218 l 2,43,44
 633 228 633 228 671.5 238.5 c 128,-1,45
 710 249 710 249 743 249 c 0,46,47
 799 249 799 249 843 236.5 c 128,-1,48
 887 224 887 224 933 199 c 1,49,-1
 902 138 l 1,50,51
 862 159 862 159 826.5 170 c 128,-1,52
 791 181 791 181 747 181 c 0,53,54
 722 181 722 181 688 172.5 c 128,-1,55
 654 164 654 164 637 156 c 2,56,-1
 374 46 l 2,57,58
 351 36 351 36 318.5 28.5 c 128,-1,59
 286 21 286 21 253 21 c 0,0,1
EndSplineSet
EndChar

StartChar: uni1704
Encoding: 5892 5892 9
Width: 837
GlyphClass: 2
Flags: W
HStem: 0 68<94.6917 340.964 729.335 811> 311 68<198 338.873> 537 68<465.438 572.92> 566 68<159.698 361.8>
VStem: 391 77<426.353 524.893> 411 76<133.403 268.472> 610 77<99.0094 498.865>
AnchorPoint: "+BBEENQQ3BEsEPARPBD0EPQQ+BDUA--1" 545 0 basechar 0
AnchorPoint: "+BBEENQQ3BEsEPARPBD0EPQQ+BDUA--0" 400 693 basechar 0
LayerCount: 2
Fore
SplineSet
243 0 m 0,0,1
 179 0 179 0 133.5 9 c 128,-1,2
 88 18 88 18 48 33 c 1,3,-1
 73 98 l 1,4,5
 110 82 110 82 157.5 75 c 128,-1,6
 205 68 205 68 242 68 c 0,7,8
 301 68 301 68 338 88 c 128,-1,9
 375 108 375 108 393 139 c 128,-1,10
 411 170 411 170 411 202 c 0,11,12
 411 254 411 254 375.5 282.5 c 128,-1,13
 340 311 340 311 267 311 c 2,14,-1
 198 311 l 1,15,-1
 198 379 l 1,16,-1
 244 379 l 2,17,18
 297 379 297 379 329.5 395.5 c 128,-1,19
 362 412 362 412 376.5 436.5 c 128,-1,20
 391 461 391 461 391 485 c 0,21,22
 391 518 391 518 365 542 c 128,-1,23
 339 566 339 566 278 566 c 0,24,25
 238 566 238 566 200 556.5 c 128,-1,26
 162 547 162 547 136 534 c 1,27,-1
 108 597 l 1,28,29
 153 618 153 618 192 626 c 128,-1,30
 231 634 231 634 282 634 c 0,31,32
 388 634 388 634 436 578 c 1,33,34
 462 594 462 594 487.5 599.5 c 128,-1,35
 513 605 513 605 536 605 c 0,36,37
 619 605 619 605 653 542 c 128,-1,38
 687 479 687 479 687 351 c 2,39,-1
 687 207 l 2,40,41
 687 159 687 159 694.5 128 c 128,-1,42
 702 97 702 97 728.5 82.5 c 128,-1,43
 755 68 755 68 811 68 c 1,44,-1
 811 0 l 1,45,-1
 801 0 l 2,46,47
 719 0 719 0 678 26 c 128,-1,48
 637 52 637 52 623.5 99 c 128,-1,49
 610 146 610 146 610 207 c 2,50,-1
 610 351 l 2,51,52
 610 423 610 423 601 463.5 c 128,-1,53
 592 504 592 504 573.5 520.5 c 128,-1,54
 555 537 555 537 527 537 c 0,55,56
 513 537 513 537 496 532.5 c 128,-1,57
 479 528 479 528 465 520 c 1,58,59
 468 505 468 505 468 489 c 0,60,61
 468 444 468 444 446.5 410 c 128,-1,62
 425 376 425 376 380 356 c 1,63,64
 426 343 426 343 456.5 302.5 c 128,-1,65
 487 262 487 262 487 203 c 0,66,67
 487 139 487 139 455.5 93.5 c 128,-1,68
 424 48 424 48 369 24 c 128,-1,69
 314 0 314 0 243 0 c 0,0,1
EndSplineSet
EndChar

StartChar: uni1705
Encoding: 5893 5893 10
Width: 1011
GlyphClass: 2
Flags: W
HStem: 0 21G<74 150> 57 64<743.141 788.41> 64 68<179.811 398.995> 85 68<150.799 326.188> 257 68<521.602 608.711> 380 68<732.372 854.848> 398 68<130.023 232.245> 443 68<250.293 405.835>
VStem: 52 72<474.062 545.567> 69 72<0.625122 77.1142> 447 77<186.062 257 325 396.354> 885 72<204.932 349.374>
AnchorPoint: "+BBEENQQ3BEsEPARPBD0EPQQ+BDUA--1" 564 0 basechar 0
AnchorPoint: "+BBEENQQ3BEsEPARPBD0EPQQ+BDUA--0" 488 693 basechar 0
LayerCount: 2
Fore
SplineSet
79 0 m 1,0,1
 69 26 69 26 69 56 c 0,2,3
 69 78 69 78 79.5 100.5 c 128,-1,4
 90 123 90 123 113.5 138 c 128,-1,5
 137 153 137 153 176 153 c 0,6,7
 208 153 208 153 232 147.5 c 128,-1,8
 256 142 256 142 278.5 137 c 128,-1,9
 301 132 301 132 327 132 c 0,10,11
 389 132 389 132 418 173.5 c 128,-1,12
 447 215 447 215 447 288 c 0,13,14
 447 365 447 365 421 404 c 128,-1,15
 395 443 395 443 338 443 c 0,16,17
 307 443 307 443 286.5 436 c 128,-1,18
 266 429 266 429 249 420.5 c 128,-1,19
 232 412 232 412 212 405 c 128,-1,20
 192 398 192 398 161 398 c 0,21,22
 115 398 115 398 83.5 423 c 128,-1,23
 52 448 52 448 52 501 c 0,24,25
 52 545 52 545 82.5 577 c 128,-1,26
 113 609 113 609 161 641 c 1,27,-1
 199 584 l 1,28,29
 165 562 165 562 144.5 544.5 c 128,-1,30
 124 527 124 527 124 503 c 0,31,32
 124 491 124 491 132.5 478.5 c 128,-1,33
 141 466 141 466 170 466 c 0,34,35
 184 466 184 466 199 472 c 128,-1,36
 214 478 214 478 227 485 c 0,37,38
 247 496 247 496 272.5 503.5 c 128,-1,39
 298 511 298 511 332 511 c 0,40,41
 394 511 394 511 434.5 486.5 c 128,-1,42
 475 462 475 462 497 420 c 128,-1,43
 519 378 519 378 524 325 c 1,44,45
 562 325 562 325 589.5 336.5 c 128,-1,46
 617 348 617 348 652 381 c 0,47,48
 689 415 689 415 722 431.5 c 128,-1,49
 755 448 755 448 797 448 c 0,50,51
 872 448 872 448 914.5 401.5 c 128,-1,52
 957 355 957 355 957 283 c 0,53,54
 957 215 957 215 926 168 c 128,-1,55
 895 121 895 121 846.5 94 c 128,-1,56
 798 67 798 67 745 57 c 1,57,-1
 728 121 l 1,58,59
 799 138 799 138 842 179 c 128,-1,60
 885 220 885 220 885 284 c 0,61,62
 885 327 885 327 860 353.5 c 128,-1,63
 835 380 835 380 797 380 c 0,64,65
 769 380 769 380 748.5 369 c 128,-1,66
 728 358 728 358 701 331 c 0,67,68
 662 292 662 292 619.5 274.5 c 128,-1,69
 577 257 577 257 524 257 c 1,70,71
 519 194 519 194 491 151 c 128,-1,72
 463 108 463 108 421.5 86 c 128,-1,73
 380 64 380 64 332 64 c 0,74,75
 292 64 292 64 267.5 69.5 c 128,-1,76
 243 75 243 75 224 80 c 128,-1,77
 205 85 205 85 179 85 c 0,78,79
 160 85 160 85 150.5 73 c 128,-1,80
 141 61 141 61 141 44 c 0,81,82
 141 36 141 36 143 25 c 128,-1,83
 145 14 145 14 150 0 c 1,84,-1
 79 0 l 1,0,1
EndSplineSet
EndChar

StartChar: uni1706
Encoding: 5894 5894 11
Width: 975
GlyphClass: 2
Flags: W
HStem: 0 21G<142 229.5> 273 68<137.147 241.135> 563 68<646.466 901.903>
VStem: 68 68<342.717 421.667> 142 79<0 104.084>
AnchorPoint: "+BBEENQQ3BEsEPARPBD0EPQQ+BDUA--1" 539 0 basechar 0
AnchorPoint: "+BBEENQQ3BEsEPARPBD0EPQQ+BDUA--0" 488 693 basechar 0
LayerCount: 2
Fore
SplineSet
142 0 m 1,0,1
 151 74 151 74 176.5 148.5 c 128,-1,2
 202 223 202 223 242 291 c 1,3,4
 221 281 221 281 203 277 c 128,-1,5
 185 273 185 273 168 273 c 0,6,7
 122 273 122 273 95 299 c 128,-1,8
 68 325 68 325 68 368 c 0,9,10
 68 415 68 415 100 450 c 1,11,-1
 152 406 l 1,12,13
 145 397 145 397 140.5 389 c 128,-1,14
 136 381 136 381 136 371 c 0,15,16
 136 341 136 341 173 341 c 0,17,18
 203 341 203 341 249.5 364.5 c 128,-1,19
 296 388 296 388 372 458 c 0,20,21
 455 534 455 534 557 582.5 c 128,-1,22
 659 631 659 631 778 631 c 0,23,24
 822 631 822 631 864.5 623 c 128,-1,25
 907 615 907 615 943 598 c 1,26,-1
 914 536 l 1,27,28
 892 547 892 547 856 555 c 128,-1,29
 820 563 820 563 778 563 c 0,30,31
 718 563 718 563 649 542 c 128,-1,32
 580 521 580 521 511.5 477.5 c 128,-1,33
 443 434 443 434 383.5 367 c 128,-1,34
 324 300 324 300 281 208.5 c 128,-1,35
 238 117 238 117 221 0 c 1,36,-1
 142 0 l 1,0,1
EndSplineSet
EndChar

StartChar: uni1707
Encoding: 5895 5895 12
Width: 1048
GlyphClass: 2
Flags: W
HStem: 80 68<209.422 453.109> 164 68<607.495 858.278> 425 68<247.173 451.695> 511 68<608.303 858.278>
VStem: 94 77<185.643 347.172>
AnchorPoint: "+BBEENQQ3BEsEPARPBD0EPQQ+BDUA--1" 552 0 basechar 0
AnchorPoint: "+BBEENQQ3BEsEPARPBD0EPQQ+BDUA--0" 527 693 basechar 0
LayerCount: 2
Fore
SplineSet
290 80 m 0,0,1
 201 80 201 80 147.5 127 c 128,-1,2
 94 174 94 174 94 251 c 0,3,4
 94 308 94 308 118 357.5 c 128,-1,5
 142 407 142 407 183 444 c 1,6,7
 149 456 149 456 116.5 474 c 128,-1,8
 84 492 84 492 51 517 c 1,9,-1
 89 573 l 1,10,11
 129 545 129 545 162 527 c 128,-1,12
 195 509 195 509 228.5 501 c 128,-1,13
 262 493 262 493 304 493 c 0,14,15
 366 493 366 493 425.5 508 c 128,-1,16
 485 523 485 523 529 537 c 0,17,18
 574 551 574 551 629 565 c 128,-1,19
 684 579 684 579 744 579 c 0,20,21
 818 579 818 579 877 555.5 c 128,-1,22
 936 532 936 532 997 487 c 1,23,-1
 955 433 l 1,24,25
 921 459 921 459 888 476 c 128,-1,26
 855 493 855 493 818 502 c 128,-1,27
 781 511 781 511 731 511 c 0,28,29
 685 511 685 511 637 497.5 c 128,-1,30
 589 484 589 484 550 472 c 0,31,32
 501 456 501 456 434.5 440.5 c 128,-1,33
 368 425 368 425 302 425 c 0,34,35
 281 425 281 425 261 427 c 1,36,37
 219 397 219 397 195 352 c 128,-1,38
 171 307 171 307 171 253 c 0,39,40
 171 205 171 205 201 176.5 c 128,-1,41
 231 148 231 148 291 148 c 0,42,43
 350 148 350 148 405 159 c 128,-1,44
 460 170 460 170 527 190 c 0,45,46
 577 205 577 205 630.5 218.5 c 128,-1,47
 684 232 684 232 744 232 c 0,48,49
 818 232 818 232 877 208.5 c 128,-1,50
 936 185 936 185 997 140 c 1,51,-1
 955 86 l 1,52,53
 921 112 921 112 888 129 c 128,-1,54
 855 146 855 146 818 155 c 128,-1,55
 781 164 781 164 731 164 c 0,56,57
 685 164 685 164 639 151 c 128,-1,58
 593 138 593 138 550 126 c 0,59,60
 496 111 496 111 430.5 95.5 c 128,-1,61
 365 80 365 80 290 80 c 0,0,1
EndSplineSet
EndChar

StartChar: uni1708
Encoding: 5896 5896 13
Width: 850
GlyphClass: 2
Flags: W
HStem: 0 21G<96.5 186 664 753.5>
VStem: 74 77<44.9429 360.984> 353 81<169.01 193.892 334.514 360.901> 374 68<504.592 560> 442 92<71.1202 110.532 250.959 277.455> 442 78<417.814 451.064> 664 80<0 76.0913> 699 78<42.7332 360.892>
AnchorPoint: "+BBEENQQ3BEsEPARPBD0EPQQ+BDUA--1" 437 -88 basechar 0
AnchorPoint: "+BBEENQQ3BEsEPARPBD0EPQQ+BDUA--0" 410 693 basechar 0
LayerCount: 2
Fore
SplineSet
392 -66 m 1,0,-1
 328 -32 l 1,1,2
 352 14 352 14 379.5 38 c 128,-1,3
 407 62 407 62 426 75 c 0,4,5
 437 83 437 83 439.5 87 c 128,-1,6
 442 91 442 91 442 94 c 0,7,8
 442 102 442 102 424 109 c 0,9,10
 407 116 407 116 390.5 123 c 128,-1,11
 374 130 374 130 363.5 142.5 c 128,-1,12
 353 155 353 155 353 178 c 0,13,14
 353 198 353 198 365 211.5 c 128,-1,15
 377 225 377 225 391.5 234 c 128,-1,16
 406 243 406 243 412 246 c 0,17,18
 423 253 423 253 432.5 257 c 128,-1,19
 442 261 442 261 442 264 c 0,20,21
 442 269 442 269 424 276 c 0,22,23
 397 287 397 287 375 299 c 128,-1,24
 353 311 353 311 353 345 c 0,25,26
 353 370 353 370 371.5 384.5 c 128,-1,27
 390 399 390 399 412 413 c 0,28,29
 422 419 422 419 432 424 c 128,-1,30
 442 429 442 429 442 432 c 0,31,32
 442 434 442 434 440.5 436 c 128,-1,33
 439 438 439 438 432 442 c 0,34,35
 411 456 411 456 392.5 483.5 c 128,-1,36
 374 511 374 511 374 557 c 2,37,-1
 374 560 l 1,38,39
 303 544 303 544 253 495 c 128,-1,40
 203 446 203 446 177 374.5 c 128,-1,41
 151 303 151 303 151 219 c 0,42,43
 151 177 151 177 154 143 c 128,-1,44
 157 109 157 109 165 75.5 c 128,-1,45
 173 42 173 42 186 0 c 1,46,-1
 106 0 l 1,47,48
 87 52 87 52 80.5 110 c 128,-1,49
 74 168 74 168 74 218 c 0,50,51
 74 322 74 322 104 400 c 128,-1,52
 134 478 134 478 185 530 c 128,-1,53
 236 582 236 582 298.5 608 c 128,-1,54
 361 634 361 634 425 634 c 0,55,56
 490 634 490 634 552.5 608 c 128,-1,57
 615 582 615 582 665.5 530 c 128,-1,58
 716 478 716 478 746.5 400 c 128,-1,59
 777 322 777 322 777 218 c 0,60,61
 777 168 777 168 770 110 c 128,-1,62
 763 52 763 52 744 0 c 1,63,-1
 664 0 l 1,64,65
 678 42 678 42 685.5 75.5 c 128,-1,66
 693 109 693 109 696 143 c 128,-1,67
 699 177 699 177 699 219 c 0,68,69
 699 310 699 310 668 386.5 c 128,-1,70
 637 463 637 463 579.5 511.5 c 128,-1,71
 522 560 522 560 442 565 c 1,72,-1
 442 559 l 2,73,74
 442 526 442 526 458.5 509.5 c 128,-1,75
 475 493 475 493 486 482 c 0,76,77
 496 472 496 472 508 461 c 128,-1,78
 520 450 520 450 520 431 c 0,79,80
 520 415 520 415 506.5 398.5 c 128,-1,81
 493 382 493 382 449 357 c 0,82,83
 434 349 434 349 434 346 c 0,84,85
 434 344 434 344 442 340.5 c 128,-1,86
 450 337 450 337 460 332 c 0,87,88
 487 322 487 322 510.5 308.5 c 128,-1,89
 534 295 534 295 534 270 c 0,90,91
 534 248 534 248 510.5 231 c 128,-1,92
 487 214 487 214 466 200 c 0,93,94
 454 193 454 193 444 187 c 128,-1,95
 434 181 434 181 434 179 c 256,96,97
 434 177 434 177 443 174 c 128,-1,98
 452 171 452 171 462 166 c 0,99,100
 489 154 489 154 511.5 141 c 128,-1,101
 534 128 534 128 534 104 c 0,102,103
 534 81 534 81 518 63 c 128,-1,104
 502 45 502 45 477 28 c 0,105,106
 457 14 457 14 435 -7.5 c 128,-1,107
 413 -29 413 -29 392 -66 c 1,0,-1
EndSplineSet
EndChar

StartChar: uni1709
Encoding: 5897 5897 14
Width: 1070
GlyphClass: 2
Flags: W
HStem: 0 68<287.108 410.412> 374 68<58 223.824> 566 68<846.102 968.214>
VStem: 194 77<85.0003 300.103> 224 77<237.97 373.445>
AnchorPoint: "+BBEENQQ3BEsEPARPBD0EPQQ+BDUA--1" 590 0 basechar 0
AnchorPoint: "+BBEENQQ3BEsEPARPBD0EPQQ+BDUA--0" 488 693 basechar 0
LayerCount: 2
Fore
SplineSet
327 0 m 0,0,1
 259 0 259 0 226.5 42 c 128,-1,2
 194 84 194 84 194 151 c 0,3,4
 194 186 194 186 202.5 231 c 128,-1,5
 211 276 211 276 218 311 c 0,6,7
 222 328 222 328 223 343 c 128,-1,8
 224 358 224 358 224 374 c 1,9,-1
 58 374 l 1,10,-1
 58 442 l 1,11,-1
 199 442 l 2,12,13
 256 442 256 442 278.5 422.5 c 128,-1,14
 301 403 301 403 301 364 c 0,15,16
 301 343 301 343 296.5 320 c 128,-1,17
 292 297 292 297 288 280 c 0,18,19
 279 241 279 241 275 211.5 c 128,-1,20
 271 182 271 182 271 144 c 0,21,22
 271 107 271 107 287.5 87.5 c 128,-1,23
 304 68 304 68 332 68 c 0,24,25
 387 68 387 68 435.5 106.5 c 128,-1,26
 484 145 484 145 532 208 c 0,27,28
 557 241 557 241 583.5 280 c 128,-1,29
 610 319 610 319 643 371 c 128,-1,30
 676 423 676 423 719 492 c 0,31,32
 765 566 765 566 807.5 600 c 128,-1,33
 850 634 850 634 910 634 c 0,34,35
 962 634 962 634 999.5 607 c 128,-1,36
 1037 580 1037 580 1056 533 c 1,37,-1
 993 506 l 1,38,39
 980 539 980 539 958 552.5 c 128,-1,40
 936 566 936 566 906 566 c 0,41,42
 872 566 872 566 843 542 c 128,-1,43
 814 518 814 518 780 461 c 2,44,-1
 746 404 l 1,45,46
 764 382 764 382 784 352 c 128,-1,47
 804 322 804 322 822 291 c 128,-1,48
 840 260 840 260 852 235 c 1,49,-1
 789 202 l 1,50,51
 773 233 773 233 751 271.5 c 128,-1,52
 729 310 729 310 706 340 c 1,53,54
 681 300 681 300 651 253.5 c 128,-1,55
 621 207 621 207 586.5 162.5 c 128,-1,56
 552 118 552 118 512 81 c 128,-1,57
 472 44 472 44 426 22 c 128,-1,58
 380 0 380 0 327 0 c 0,0,1
EndSplineSet
EndChar

StartChar: uni170A
Encoding: 5898 5898 15
Width: 851
GlyphClass: 2
Flags: W
HStem: 0 68<178.473 334.542 494.304 631.784> 566 68<366.043 561.217>
VStem: 64 77<106.305 308.458> 710 77<162.597 387.614>
AnchorPoint: "+BBEENQQ3BEsEPARPBD0EPQQ+BDUA--1" 520 -79 basechar 0
AnchorPoint: "+BBEENQQ3BEsEPARPBD0EPQQ+BDUA--0" 488 693 basechar 0
LayerCount: 2
Fore
SplineSet
239 0 m 0,0,1
 162 0 162 0 113 47.5 c 128,-1,2
 64 95 64 95 64 189 c 0,3,4
 64 246 64 246 82.5 308 c 128,-1,5
 101 370 101 370 136.5 428 c 128,-1,6
 172 486 172 486 222.5 532.5 c 128,-1,7
 273 579 273 579 337 606.5 c 128,-1,8
 401 634 401 634 477 634 c 0,9,10
 543 634 543 634 599 602.5 c 128,-1,11
 655 571 655 571 697.5 518.5 c 128,-1,12
 740 466 740 466 763.5 401.5 c 128,-1,13
 787 337 787 337 787 270 c 0,14,15
 787 189 787 189 758.5 128.5 c 128,-1,16
 730 68 730 68 680 34 c 128,-1,17
 630 0 630 0 565 0 c 0,18,19
 507 0 507 0 476 20.5 c 128,-1,20
 445 41 445 41 422 69 c 1,21,22
 387 40 387 40 342.5 20 c 128,-1,23
 298 0 298 0 239 0 c 0,0,1
244 68 m 0,24,25
 288 68 288 68 324 84.5 c 128,-1,26
 360 101 360 101 388 125.5 c 128,-1,27
 416 150 416 150 436 172 c 1,28,29
 459 125 459 125 487 96.5 c 128,-1,30
 515 68 515 68 558 68 c 0,31,32
 609 68 609 68 643 98.5 c 128,-1,33
 677 129 677 129 693.5 176 c 128,-1,34
 710 223 710 223 710 271 c 0,35,36
 710 323 710 323 693 375 c 128,-1,37
 676 427 676 427 644.5 470.5 c 128,-1,38
 613 514 613 514 569.5 540 c 128,-1,39
 526 566 526 566 473 566 c 0,40,41
 402 566 402 566 341.5 532.5 c 128,-1,42
 281 499 281 499 236 442.5 c 128,-1,43
 191 386 191 386 166 317.5 c 128,-1,44
 141 249 141 249 141 178 c 0,45,46
 141 130 141 130 168 99 c 128,-1,47
 195 68 195 68 244 68 c 0,24,25
EndSplineSet
EndChar

StartChar: uni170B
Encoding: 5899 5899 16
Width: 1030
GlyphClass: 2
Flags: W
HStem: 0 68<292.559 387.222> 339 68<291.001 540.826> 434 68<58 216.635> 566 68<800.329 923.37>
VStem: 190 77<94.7124 314.217> 217 77<389 433.603>
AnchorPoint: "+BBEENQQ3BEsEPARPBD0EPQQ+BDUA--1" 577 0 basechar 0
AnchorPoint: "+BBEENQQ3BEsEPARPBD0EPQQ+BDUA--0" 488 693 basechar 0
LayerCount: 2
Fore
SplineSet
324 0 m 0,0,1
 263 0 263 0 226.5 53.5 c 128,-1,2
 190 107 190 107 190 198 c 0,3,4
 190 234 190 234 192.5 261 c 128,-1,5
 195 288 195 288 199 317 c 0,6,7
 205 358 205 358 211 383.5 c 128,-1,8
 217 409 217 409 217 434 c 1,9,-1
 58 434 l 1,10,-1
 58 502 l 1,11,-1
 186 502 l 2,12,13
 239 502 239 502 266.5 490.5 c 128,-1,14
 294 479 294 479 294 429 c 0,15,16
 294 416 294 416 293 406 c 128,-1,17
 292 396 292 396 290 389 c 1,18,19
 322 399 322 399 359.5 403 c 128,-1,20
 397 407 397 407 421 407 c 0,21,22
 473 407 473 407 516 396 c 128,-1,23
 559 385 559 385 594 368 c 1,24,25
 604 382 604 382 620.5 408 c 128,-1,26
 637 434 637 434 673 492 c 0,27,28
 719 566 719 566 761.5 600 c 128,-1,29
 804 634 804 634 864 634 c 0,30,31
 916 634 916 634 953.5 607 c 128,-1,32
 991 580 991 580 1010 533 c 1,33,-1
 947 506 l 1,34,35
 934 540 934 540 911.5 553 c 128,-1,36
 889 566 889 566 860 566 c 0,37,38
 826 566 826 566 797.5 542 c 128,-1,39
 769 518 769 518 734 461 c 0,40,41
 684 377 684 377 653 325.5 c 128,-1,42
 622 274 622 274 602.5 242 c 128,-1,43
 583 210 583 210 565 184 c 0,44,45
 532 135 532 135 494 93 c 128,-1,46
 456 51 456 51 414 25.5 c 128,-1,47
 372 0 372 0 324 0 c 0,0,1
324 68 m 0,48,49
 362 68 362 68 400.5 100 c 128,-1,50
 439 132 439 132 478.5 186.5 c 128,-1,51
 518 241 518 241 559 310 c 1,52,53
 528 324 528 324 490.5 331.5 c 128,-1,54
 453 339 453 339 418 339 c 0,55,56
 381 339 381 339 345 332.5 c 128,-1,57
 309 326 309 326 277 315 c 1,58,59
 272 290 272 290 269.5 259 c 128,-1,60
 267 228 267 228 267 196 c 0,61,62
 267 137 267 137 284.5 102.5 c 128,-1,63
 302 68 302 68 324 68 c 0,48,49
EndSplineSet
EndChar

StartChar: uni170C
Encoding: 5900 5900 17
Width: 1029
GlyphClass: 2
Flags: W
HStem: 0 68<285.401 408.771> 359 68<820.377 948.947> 374 68<58 223.824> 566 68<841.82 955.264>
VStem: 194 77<86.1199 300.103> 224 77<237.97 373.445> 972 72<449.917 548.159>
AnchorPoint: "+BBEENQQ3BEsEPARPBD0EPQQ+BDUA--1" 583 0 basechar 0
AnchorPoint: "+BBEENQQ3BEsEPARPBD0EPQQ+BDUA--0" 520 693 basechar 0
LayerCount: 2
Fore
SplineSet
331 0 m 0,0,1
 281 0 281 0 250.5 20 c 128,-1,2
 220 40 220 40 207 74.5 c 128,-1,3
 194 109 194 109 194 151 c 0,4,5
 194 186 194 186 202.5 231 c 128,-1,6
 211 276 211 276 218 311 c 0,7,8
 222 328 222 328 223 343 c 128,-1,9
 224 358 224 358 224 374 c 1,10,-1
 58 374 l 1,11,-1
 58 442 l 1,12,-1
 199 442 l 2,13,14
 256 442 256 442 278.5 422.5 c 128,-1,15
 301 403 301 403 301 364 c 0,16,17
 301 343 301 343 296.5 320 c 128,-1,18
 292 297 292 297 288 280 c 0,19,20
 279 241 279 241 275 211.5 c 128,-1,21
 271 182 271 182 271 144 c 0,22,23
 271 113 271 113 284.5 90.5 c 128,-1,24
 298 68 298 68 335 68 c 0,25,26
 373 68 373 68 411 91 c 128,-1,27
 449 114 449 114 485 152.5 c 128,-1,28
 521 191 521 191 554.5 238.5 c 128,-1,29
 588 286 588 286 619 336.5 c 128,-1,30
 650 387 650 387 677 433 c 0,31,32
 714 495 714 495 743.5 540 c 128,-1,33
 773 585 773 585 810 609.5 c 128,-1,34
 847 634 847 634 906 634 c 0,35,36
 947 634 947 634 978 616.5 c 128,-1,37
 1009 599 1009 599 1026.5 569.5 c 128,-1,38
 1044 540 1044 540 1044 504 c 0,39,40
 1044 472 1044 472 1029 438 c 128,-1,41
 1014 404 1014 404 981.5 381.5 c 128,-1,42
 949 359 949 359 895 359 c 0,43,44
 864 359 864 359 837.5 365 c 128,-1,45
 811 371 811 371 792 380 c 1,46,-1
 820 442 l 1,47,48
 832 436 832 436 850.5 431.5 c 128,-1,49
 869 427 869 427 892 427 c 0,50,51
 928 427 928 427 950 449.5 c 128,-1,52
 972 472 972 472 972 504 c 0,53,54
 972 527 972 527 954.5 546.5 c 128,-1,55
 937 566 937 566 902 566 c 0,56,57
 869 566 869 566 843 545.5 c 128,-1,58
 817 525 817 525 793.5 488 c 128,-1,59
 770 451 770 451 741 401 c 0,60,61
 695 320 695 320 647.5 248 c 128,-1,62
 600 176 600 176 549.5 120 c 128,-1,63
 499 64 499 64 445 32 c 128,-1,64
 391 0 391 0 331 0 c 0,0,1
EndSplineSet
EndChar

StartChar: uni170E
Encoding: 5902 5902 18
Width: 913
GlyphClass: 2
Flags: W
HStem: 423 68<140.083 330.444> 568 68<572.689 800.443>
VStem: 393 73<374.046 471.973> 399 81<211.227 242.336>
AnchorPoint: "+BBEENQQ3BEsEPARPBD0EPQQ+BDUA--1" 507 -49 basechar 0
AnchorPoint: "+BBEENQQ3BEsEPARPBD0EPQQ+BDUA--0" 488 693 basechar 0
LayerCount: 2
Fore
SplineSet
437 -10 m 1,0,-1
 375 23 l 1,1,2
 399 66 399 66 426 91.5 c 128,-1,3
 453 117 453 117 478 133 c 0,4,5
 488 139 488 139 488 143 c 256,6,7
 488 147 488 147 470 154 c 0,8,9
 453 161 453 161 436.5 167.5 c 128,-1,10
 420 174 420 174 409.5 186 c 128,-1,11
 399 198 399 198 399 220 c 0,12,13
 399 240 399 240 408.5 253 c 128,-1,14
 418 266 418 266 429.5 273.5 c 128,-1,15
 441 281 441 281 447 284 c 0,16,17
 458 289 458 289 467 293.5 c 128,-1,18
 476 298 476 298 476 301 c 0,19,20
 476 305 476 305 458 312 c 0,21,22
 429 323 429 323 411 342 c 128,-1,23
 393 361 393 361 393 391 c 0,24,25
 393 436 393 436 414 473 c 1,26,27
 374 454 374 454 327.5 438.5 c 128,-1,28
 281 423 281 423 230 423 c 0,29,30
 165 423 165 423 119.5 446 c 128,-1,31
 74 469 74 469 28 508 c 1,32,-1
 73 562 l 1,33,34
 107 530 107 530 144.5 510.5 c 128,-1,35
 182 491 182 491 232 491 c 0,36,37
 274 491 274 491 330.5 512.5 c 128,-1,38
 387 534 387 534 438 561 c 0,39,40
 516 602 516 602 576.5 619 c 128,-1,41
 637 636 637 636 687 636 c 0,42,43
 743 636 743 636 787 623.5 c 128,-1,44
 831 611 831 611 877 586 c 1,45,-1
 846 525 l 1,46,47
 806 546 806 546 770.5 557 c 128,-1,48
 735 568 735 568 691 568 c 0,49,50
 620 568 620 568 569.5 545 c 128,-1,51
 519 522 519 522 492.5 485 c 128,-1,52
 466 448 466 448 466 405 c 0,53,54
 466 389 466 389 477.5 380.5 c 128,-1,55
 489 372 489 372 510 364 c 0,56,57
 539 353 539 353 553.5 339.5 c 128,-1,58
 568 326 568 326 568 306 c 256,59,60
 568 286 568 286 545 270.5 c 128,-1,61
 522 255 522 255 501 242 c 0,62,63
 488 234 488 234 484 229.5 c 128,-1,64
 480 225 480 225 480 223 c 0,65,66
 480 220 480 220 489 216.5 c 128,-1,67
 498 213 498 213 508 208 c 0,68,69
 534 197 534 197 556 185.5 c 128,-1,70
 578 174 578 174 578 150 c 0,71,72
 578 128 578 128 564 111.5 c 128,-1,73
 550 95 550 95 524 78 c 0,74,75
 502 64 502 64 480 43.5 c 128,-1,76
 458 23 458 23 437 -10 c 1,0,-1
EndSplineSet
EndChar

StartChar: uni170F
Encoding: 5903 5903 19
Width: 761
GlyphClass: 2
Flags: W
HStem: 0 68<293.154 431.351> 374 68<58 223.824> 606 68<431.106 591.977>
VStem: 194 77<90.5849 299.911> 224 77<238.82 373.445> 636 77<345.222 559.424>
AnchorPoint: "+BBEENQQ3BEsEPARPBD0EPQQ+BDUA--1" 457 -30 basechar 0
AnchorPoint: "+BBEENQQ3BEsEPARPBD0EPQQ+BDUA--0" 537 742 basechar 0
LayerCount: 2
Fore
SplineSet
351 0 m 0,0,1
 274 0 274 0 234 41 c 128,-1,2
 194 82 194 82 194 152 c 0,3,4
 194 187 194 187 202.5 231.5 c 128,-1,5
 211 276 211 276 218 311 c 0,6,7
 222 328 222 328 223 343 c 128,-1,8
 224 358 224 358 224 374 c 1,9,-1
 58 374 l 1,10,-1
 58 442 l 1,11,-1
 199 442 l 2,12,13
 256 442 256 442 278.5 422.5 c 128,-1,14
 301 403 301 403 301 364 c 0,15,16
 301 335 301 335 293.5 303 c 128,-1,17
 286 271 286 271 278.5 235.5 c 128,-1,18
 271 200 271 200 271 159 c 0,19,20
 271 111 271 111 293 89.5 c 128,-1,21
 315 68 315 68 357 68 c 0,22,23
 397 68 397 68 437 93 c 128,-1,24
 477 118 477 118 512.5 160.5 c 128,-1,25
 548 203 548 203 576 255.5 c 128,-1,26
 604 308 604 308 620 364 c 128,-1,27
 636 420 636 420 636 471 c 0,28,29
 636 532 636 532 607.5 569 c 128,-1,30
 579 606 579 606 514 606 c 0,31,32
 473 606 473 606 438 588 c 128,-1,33
 403 570 403 570 378 538 c 1,34,-1
 327 582 l 1,35,36
 359 623 359 623 406 648.5 c 128,-1,37
 453 674 453 674 519 674 c 0,38,39
 575 674 575 674 619 653 c 128,-1,40
 663 632 663 632 688 587 c 128,-1,41
 713 542 713 542 713 469 c 0,42,43
 713 407 713 407 693.5 341.5 c 128,-1,44
 674 276 674 276 639 215 c 128,-1,45
 604 154 604 154 558 105.5 c 128,-1,46
 512 57 512 57 459 28.5 c 128,-1,47
 406 0 406 0 351 0 c 0,0,1
EndSplineSet
EndChar

StartChar: uni1710
Encoding: 5904 5904 20
Width: 922
GlyphClass: 2
Flags: W
HStem: -10 68<512 706.955> 0 21G<172.929 276.5> 292 68<585 725.229> 566 68<19 170.134 596.728 747.699>
VStem: 173 77<151 565.788> 778 77<408.981 534.883> 797 77<123.404 251.724>
AnchorPoint: "+BBEENQQ3BEsEPARPBD0EPQQ+BDUA--1" 609 -79 basechar 0
AnchorPoint: "+BBEENQQ3BEsEPARPBD0EPQQ+BDUA--0" 488 693 basechar 0
LayerCount: 2
Fore
SplineSet
512 -10 m 1,0,-1
 512 58 l 1,1,-1
 544 58 l 2,2,3
 621 58 621 58 677.5 70.5 c 128,-1,4
 734 83 734 83 765.5 112.5 c 128,-1,5
 797 142 797 142 797 192 c 0,6,7
 797 211 797 211 786.5 234.5 c 128,-1,8
 776 258 776 258 746.5 275 c 128,-1,9
 717 292 717 292 659 292 c 2,10,-1
 585 292 l 1,11,-1
 585 360 l 1,12,-1
 631 360 l 2,13,14
 683 360 683 360 715.5 376.5 c 128,-1,15
 748 393 748 393 763 418.5 c 128,-1,16
 778 444 778 444 778 472 c 0,17,18
 778 511 778 511 753.5 538.5 c 128,-1,19
 729 566 729 566 674 566 c 0,20,21
 622 566 622 566 575.5 530 c 128,-1,22
 529 494 529 494 490 435 c 0,23,24
 430 345 430 345 371.5 234.5 c 128,-1,25
 313 124 313 124 240 0 c 1,26,-1
 173 0 l 1,27,-1
 171 566 l 1,28,-1
 19 566 l 1,29,-1
 19 634 l 1,30,-1
 147 634 l 2,31,32
 194 634 194 634 215 624.5 c 128,-1,33
 236 615 236 615 242 596.5 c 128,-1,34
 248 578 248 578 248 550 c 2,35,-1
 250 151 l 1,36,-1
 252 151 l 1,37,38
 300 250 300 250 340 324 c 128,-1,39
 380 398 380 398 422 463 c 0,40,41
 474 543 474 543 536.5 588.5 c 128,-1,42
 599 634 599 634 682 634 c 0,43,44
 762 634 762 634 808.5 592 c 128,-1,45
 855 550 855 550 855 482 c 0,46,47
 855 435 855 435 836 397.5 c 128,-1,48
 817 360 817 360 767 337 c 1,49,50
 813 324 813 324 843.5 284.5 c 128,-1,51
 874 245 874 245 874 192 c 0,52,53
 874 96 874 96 798.5 43 c 128,-1,54
 723 -10 723 -10 553 -10 c 2,55,-1
 512 -10 l 1,0,-1
EndSplineSet
EndChar

StartChar: uni1711
Encoding: 5905 5905 21
Width: 1049
GlyphClass: 2
Flags: W
HStem: 236 68<188.03 452.695> 322 68<609.303 859.278>
AnchorPoint: "+BBEENQQ3BEsEPARPBD0EPQQ+BDUA--1" 507 0 basechar 0
AnchorPoint: "+BBEENQQ3BEsEPARPBD0EPQQ+BDUA--0" 532 693 basechar 0
LayerCount: 2
Fore
SplineSet
303 236 m 0,0,1
 230 236 230 236 171.5 259.5 c 128,-1,2
 113 283 113 283 52 328 c 1,3,-1
 90 384 l 1,4,5
 130 356 130 356 163 338 c 128,-1,6
 196 320 196 320 229.5 312 c 128,-1,7
 263 304 263 304 305 304 c 0,8,9
 367 304 367 304 426.5 319 c 128,-1,10
 486 334 486 334 530 348 c 0,11,12
 575 362 575 362 630 376 c 128,-1,13
 685 390 685 390 745 390 c 0,14,15
 819 390 819 390 878 366.5 c 128,-1,16
 937 343 937 343 998 298 c 1,17,-1
 956 244 l 1,18,19
 922 270 922 270 889 287 c 128,-1,20
 856 304 856 304 819 313 c 128,-1,21
 782 322 782 322 732 322 c 0,22,23
 686 322 686 322 638 308.5 c 128,-1,24
 590 295 590 295 551 283 c 0,25,26
 502 267 502 267 435.5 251.5 c 128,-1,27
 369 236 369 236 303 236 c 0,0,1
EndSplineSet
EndChar

StartChar: uni1712
Encoding: 5906 5906 22
Width: 0
GlyphClass: 4
Flags: W
HStem: 703 112<-204.53 -132.985>
VStem: -220 103<717.441 801.074>
AnchorPoint: "+BBEENQQ3BEsEPARPBD0EPQQ+BDUA--0" -171 693 mark 0
LayerCount: 2
Fore
SplineSet
-168 703 m 0,0,1
 -190 703 -190 703 -205 717 c 128,-1,2
 -220 731 -220 731 -220 759 c 0,3,4
 -220 788 -220 788 -205 801.5 c 128,-1,5
 -190 815 -190 815 -168 815 c 0,6,7
 -148 815 -148 815 -132.5 801.5 c 128,-1,8
 -117 788 -117 788 -117 759 c 0,9,10
 -117 731 -117 731 -132.5 717 c 128,-1,11
 -148 703 -148 703 -168 703 c 0,0,1
EndSplineSet
EndChar

StartChar: uni1713
Encoding: 5907 5907 23
Width: 0
GlyphClass: 4
Flags: W
HStem: -138 112<-134.53 -62.9855>
VStem: -150 103<-123.559 -39.9257>
AnchorPoint: "+BBEENQQ3BEsEPARPBD0EPQQ+BDUA--1" -98 0 mark 0
LayerCount: 2
Fore
SplineSet
-98 -138 m 0,0,1
 -120 -138 -120 -138 -135 -124 c 128,-1,2
 -150 -110 -150 -110 -150 -82 c 0,3,4
 -150 -53 -150 -53 -135 -39.5 c 128,-1,5
 -120 -26 -120 -26 -98 -26 c 0,6,7
 -78 -26 -78 -26 -62.5 -39.5 c 128,-1,8
 -47 -53 -47 -53 -47 -82 c 0,9,10
 -47 -110 -47 -110 -62.5 -124 c 128,-1,11
 -78 -138 -78 -138 -98 -138 c 0,0,1
EndSplineSet
EndChar

StartChar: uni1714
Encoding: 5908 5908 24
Width: 0
GlyphClass: 4
Flags: W
HStem: -153 50<-387 -288 -238 -136>
VStem: -288 50<-257 -153 -103 -6>
AnchorPoint: "+BBEENQQ3BEsEPARPBD0EPQQ+BDUA--1" -264 0 mark 0
LayerCount: 2
Fore
SplineSet
-288 -257 m 1,0,-1
 -288 -153 l 1,1,-1
 -387 -153 l 1,2,-1
 -387 -103 l 1,3,-1
 -288 -103 l 1,4,-1
 -288 -6 l 1,5,-1
 -238 -6 l 1,6,-1
 -238 -103 l 1,7,-1
 -136 -103 l 1,8,-1
 -136 -153 l 1,9,-1
 -238 -153 l 1,10,-1
 -238 -257 l 1,11,-1
 -288 -257 l 1,0,-1
EndSplineSet
EndChar

StartChar: uni1735
Encoding: 5941 5941 25
Width: 329
GlyphClass: 2
Flags: W
VStem: 18 274
LayerCount: 2
Fore
SplineSet
18 -139 m 1,0,-1
 222 750 l 1,1,-1
 292 750 l 1,2,-1
 87 -139 l 1,3,-1
 18 -139 l 1,0,-1
EndSplineSet
EndChar

StartChar: uni1736
Encoding: 5942 5942 26
Width: 488
GlyphClass: 2
Flags: W
LayerCount: 2
Fore
SplineSet
18 -139 m 1,0,-1
 222 750 l 1,1,-1
 292 750 l 1,2,-1
 87 -139 l 1,3,-1
 18 -139 l 1,0,-1
177 -139 m 1,4,-1
 381 750 l 1,5,-1
 451 750 l 1,6,-1
 246 -139 l 1,7,-1
 177 -139 l 1,4,-1
EndSplineSet
EndChar

StartChar: uni25CC
Encoding: 9676 9676 30
Width: 594
GlyphClass: 2
Flags: W
HStem: 42 53<271.311 322.689> 60 52<186.311 238.677 355.335 407.701> 107 53<114.311 166.677 428.323 479.701> 180 53<65.323 117.689 476.311 528.677> 265 52<48.2373 100.771 494.237 545.78> 349 53<65.335 117.689 476.323 528.677> 422 53<114.406 166.677 428.323 479.701> 470 53<186.311 238.677 355.335 407.701> 487 53<271.311 322.689>
VStem: 48 53<265.311 316.689> 65 53<180.311 232.677 349.422 401.689> 114 53<107.311 159.677 422.311 474.665> 186 53<60.323 111.701 470.311 522.677> 271 52<42.2373 94.7715 487.237 539.771> 355 53<60.3906 111.578 470.406 522.578> 428 52<107.311 159.677 422.311 474.677> 476 53<180.311 232.677 349.323 401.689> 494 52<265.311 316.689>
AnchorPoint: "+BBEENQQ3BEsEPARPBD0EPQQ+BDUA--1" 295 0 basechar 0
AnchorPoint: "+BBEENQQ3BEsEPARPBD0EPQQ+BDUA--0" 300 590 basechar 0
LayerCount: 2
Fore
SplineSet
323 514 m 0,0,1
 323 487 323 487 297 487 c 256,2,3
 271 487 271 487 271 514 c 0,4,5
 271 540 271 540 297 540 c 256,6,7
 323 540 323 540 323 514 c 0,0,1
408 496 m 0,8,9
 408 470 408 470 383 470 c 0,10,11
 355 470 355 470 355 496 c 0,12,13
 355 523 355 523 383 523 c 0,14,15
 408 523 408 523 408 496 c 0,8,9
239 496 m 0,16,17
 239 470 239 470 212 470 c 0,18,19
 186 470 186 470 186 496 c 0,20,21
 186 523 186 523 212 523 c 0,22,23
 239 523 239 523 239 496 c 0,16,17
480 448 m 0,24,25
 480 422 480 422 455 422 c 0,26,27
 428 422 428 422 428 448 c 0,28,29
 428 475 428 475 455 475 c 0,30,31
 480 475 480 475 480 448 c 0,24,25
167 448 m 0,32,33
 167 422 167 422 140 422 c 0,34,35
 114 422 114 422 114 447 c 0,36,37
 114 475 114 475 140 475 c 0,38,39
 167 475 167 475 167 448 c 0,32,33
529 376 m 0,40,41
 529 349 529 349 502 349 c 0,42,43
 476 349 476 349 476 376 c 0,44,45
 476 402 476 402 503 402 c 0,46,47
 529 402 529 402 529 376 c 0,40,41
118 376 m 0,48,49
 118 349 118 349 93 349 c 0,50,51
 65 349 65 349 65 376 c 0,52,53
 65 402 65 402 92 402 c 0,54,55
 118 402 118 402 118 376 c 0,48,49
546 291 m 256,56,57
 546 265 546 265 521 265 c 0,58,59
 494 265 494 265 494 291 c 256,60,61
 494 317 494 317 521 317 c 0,62,63
 546 317 546 317 546 291 c 256,56,57
101 291 m 256,64,65
 101 265 101 265 75 265 c 0,66,67
 48 265 48 265 48 291 c 256,68,69
 48 317 48 317 75 317 c 0,70,71
 101 317 101 317 101 291 c 256,64,65
529 206 m 0,72,73
 529 180 529 180 502 180 c 0,74,75
 476 180 476 180 476 206 c 0,76,77
 476 233 476 233 502 233 c 0,78,79
 529 233 529 233 529 206 c 0,72,73
118 206 m 0,80,81
 118 180 118 180 92 180 c 0,82,83
 65 180 65 180 65 206 c 0,84,85
 65 233 65 233 92 233 c 0,86,87
 118 233 118 233 118 206 c 0,80,81
480 133 m 0,88,89
 480 107 480 107 455 107 c 0,90,91
 428 107 428 107 428 133 c 0,92,93
 428 160 428 160 455 160 c 0,94,95
 480 160 480 160 480 133 c 0,88,89
167 133 m 0,96,97
 167 107 167 107 140 107 c 0,98,99
 114 107 114 107 114 133 c 0,100,101
 114 160 114 160 140 160 c 0,102,103
 167 160 167 160 167 133 c 0,96,97
408 85 m 0,104,105
 408 60 408 60 383 60 c 0,106,107
 355 60 355 60 355 85 c 0,108,109
 355 112 355 112 383 112 c 0,110,111
 408 112 408 112 408 85 c 0,104,105
239 87 m 0,112,113
 239 60 239 60 212 60 c 0,114,115
 186 60 186 60 186 85 c 0,116,117
 186 112 186 112 212 112 c 0,118,119
 239 112 239 112 239 87 c 0,112,113
323 69 m 0,120,121
 323 42 323 42 297 42 c 256,122,123
 271 42 271 42 271 69 c 0,124,125
 271 95 271 95 297 95 c 256,126,127
 323 95 323 95 323 69 c 0,120,121
EndSplineSet
EndChar

StartChar: DBar
Encoding: 65538 -1 32
Width: 1048
Flags: W
HStem: 19.792 291.757
VStem: 519.522 140.251
LayerCount: 2
Fore
SplineSet
516.307617188 306.047851562 m 5,0,-1
 585 324 l 5,1,-1
 661 32 l 1,2,-1
 592.306640625 14.046875 l 1,3,-1
 516.307617188 306.047851562 l 5,0,-1
EndSplineSet
EndChar

StartChar: uni1715
Encoding: 5909 5909 33
Width: 196
Flags: W
HStem: -136.252 70<-136.22 -40.1234>
VStem: 70.7852 69.9961<46.548 157.824>
LayerCount: 2
Fore
SplineSet
70.78515625 157.056640625 m 6,0,1
 72.0712890625 37.4072265625 72.0712890625 37.4072265625 -5.58984375 -23.357421875 c 4,2,3
 -60.4140625 -66.251953125 -60.4140625 -66.251953125 -136.219726562 -66.251953125 c 6,4,-1
 -319.807617188 -66.251953125 l 5,5,-1
 -319.807617188 -136.251953125 l 5,6,-1
 -136.219726562 -136.251953125 l 6,7,8
 -36.298828125 -136.251953125 -36.298828125 -136.251953125 37.4921875 -78.5166015625 c 4,9,10
 86.7431640625 -39.9814453125 86.7431640625 -39.9814453125 114.177734375 20.2685546875 c 132,-1,11
 141.612304688 80.517578125 141.612304688 80.517578125 140.78125 157.82421875 c 6,12,-1
 138 416.516601562 l 5,13,-1
 68.00390625 415.764648438 l 5,14,-1
 70.78515625 157.056640625 l 6,0,1
EndSplineSet
EndChar

StartChar: uni171F
Encoding: 5919 5919 34
Width: 666
Flags: W
HStem: 6.4873 70<336.488 480.815> 104.36 70<127.607 204.751> 423.377 69.4814<448.729 500.801> 639.835 70.0244<424.958 531.406>
VStem: 524.063 70<329.66 400.092> 550.059 70.084<523.048 618.94>
AnchorPoint: "+BBEENQQ3BEsEPARPBD0EPQQ+BDUA--0" 444 765 basechar 0
AnchorPoint: "+BBEENQQ3BEsEPARPBD0EPQQ+BDUA--1" 344 -31 basechar 0
LayerCount: 2
Fore
SplineSet
551.090820312 451.345703125 m 1,0,1
 620.142578125 495.219603649 620.142578125 495.219603649 620.142578125 574.62109375 c 0,2,3
 620.142578125 633.710627972 620.142578125 633.710627972 579.407226562 671.078125 c 0,4,5
 537.135408398 709.859375 537.135408398 709.859375 480.478515625 709.859375 c 0,6,7
 426.111658863 709.859375 426.111658863 709.859375 384.58203125 675.864257812 c 0,8,9
 344.234283502 642.836671559 344.234283502 642.836671559 326.931640625 596.697265625 c 0,10,11
 318.172627691 573.338209886 318.172627691 573.338209886 262.155273438 385.849609375 c 2,12,-1
 203.90234375 191.504882812 l 2,13,14
 201.238009668 183.373244452 201.238009668 183.373244452 192.69921875 179.510742188 c 0,15,16
 181.308329795 174.360351562 181.308329795 174.360351562 160.829101562 174.360351562 c 0,17,18
 152.19349486 174.360351562 152.19349486 174.360351562 139.51953125 181.896484375 c 0,19,20
 130.089924678 187.503084522 130.089924678 187.503084522 127.4296875 195.8671875 c 2,21,-1
 116.813476562 229.23046875 l 1,22,-1
 50.095703125 208.000976562 l 1,23,-1
 60.708984375 174.646484375 l 2,24,25
 71.4343212219 140.937864625 71.4343212219 140.937864625 103.818359375 121.685546875 c 0,26,27
 132.955456377 104.360351562 132.955456377 104.360351562 160.829101562 104.360351562 c 0,28,29
 196.421739864 104.360351562 196.421739864 104.360351562 221.484375 115.693359375 c 0,30,31
 258.930532033 132.627976361 258.930532033 132.627976361 270.856445312 171.033203125 c 2,32,-1
 329.239257812 365.8046875 l 2,33,34
 384.571272849 551.007527475 384.571272849 551.007527475 392.5 572.1484375 c 0,35,36
 403.187319085 600.64795506 403.187319085 600.64795506 428.875 621.674804688 c 0,37,38
 451.89529151 640.518449073 451.89529151 640.518449073 482.708984375 639.834960938 c 0,39,40
 510.61017808 639.21585584 510.61017808 639.21585584 532.112304688 619.490234375 c 0,41,42
 551.334958538 601.856095766 551.334958538 601.856095766 550.05859375 570.573242188 c 0,43,44
 548.693160789 537.092325414 548.693160789 537.092325414 521.911132812 516.303710938 c 0,45,46
 491.705787195 492.858398438 491.705787195 492.858398438 448.728515625 492.858398438 c 1,47,-1
 442.69921875 423.376953125 l 1,48,49
 483.874386483 416.215994132 483.874386483 416.215994132 508.515625 395.754882812 c 0,50,51
 524.063476562 382.844909203 524.063476562 382.844909203 524.063476562 368.482421875 c 0,52,53
 524.063476562 352.936751614 524.063476562 352.936751614 514.33984375 340.731445312 c 0,54,55
 507.326027777 331.926082932 507.326027777 331.926082932 494.68359375 324.874023438 c 0,56,57
 463.915568841 307.713867188 463.915568841 307.713867188 407.524414062 307.713867188 c 0,58,59
 402.316894531 307.713867188 402.316894531 307.713867188 396.866210938 307.865234375 c 1,60,-1
 385.760742188 239.366210938 l 1,61,62
 417.17585671 229.882321034 417.17585671 229.882321034 438.743164062 220.9921875 c 0,63,64
 459.196389048 212.560973293 459.196389048 212.560973293 481.01953125 198.966796875 c 0,65,66
 497.284385539 188.834009869 497.284385539 188.834009869 504.099609375 176.004882812 c 128,-1,67
 510.279911214 164.372422414 510.279911214 164.372422414 508.528320312 148.897460938 c 0,68,69
 505.541083599 122.515414145 505.541083599 122.515414145 486.700195312 103.239257812 c 0,70,71
 467.437751988 83.5307821851 467.437751988 83.5307821851 433.1875 77.75 c 0,72,73
 425.700880984 76.4873046875 425.700880984 76.4873046875 417.509765625 76.4873046875 c 0,74,75
 387.041044303 76.4873046875 387.041044303 76.4873046875 347.077148438 93.650390625 c 2,76,-1
 314.940429688 107.453125 l 1,77,-1
 287.3125 43.1240234375 l 1,78,-1
 319.504882812 29.298828125 l 2,79,80
 372.616668677 6.4873046875 372.616668677 6.4873046875 417.509765625 6.4873046875 c 0,81,82
 431.630489848 6.4873046875 431.630489848 6.4873046875 444.90234375 8.728515625 c 0,83,84
 501.529423379 18.2845564458 501.529423379 18.2845564458 536.754882812 54.3251953125 c 0,85,86
 572.403573919 90.7968817176 572.403573919 90.7968817176 578.081054688 140.950195312 c 0,87,88
 586.527769112 215.573566585 586.527769112 215.573566585 518.16015625 258.298828125 c 1,89,90
 550.050416339 273.231056618 550.050416339 273.231056618 569.1171875 297.165039062 c 0,91,92
 589.552300956 322.817347745 589.552300956 322.817347745 593.37890625 356.516601562 c 0,93,94
 594.063476562 362.554214079 594.063476562 362.554214079 594.063476562 368.482421875 c 0,95,96
 594.063476562 416.806364997 594.063476562 416.806364997 551.090820312 451.345703125 c 1,0,1
EndSplineSet
EndChar
